# xmcd CD database file
#
# Track frame offsets:
#	150
#	26736
#	47591
#	78287
#	98125
#	131127
#	143085
#	166512
#	182152
#	205807
#	227430
#	246820
#
# Disc length: 3622 seconds
#
# Revision: 1
# Processed by: cddbd v1.5.2PL0 Copyright (c) Steve Scherf et al.
# Submitted via: CDex 1.70beta2
#
DISCID=930e240c
DTITLE=Patroux - Mystery Of Life
DYEAR=2009
DGENRE=New Age
TTITLE0=Mystery Of Life
TTITLE1=La Danse Des Dauphins
TTITLE2=Music For The Peace
TTITLE3=The Nightingale Awakening
TTITLE4=Far Antartica
TTITLE5=Le Chant Des Sirenes
TTITLE6=Hongi
TTITLE7=Romance For The Spirits
TTITLE8=Melting Planet
TTITLE9=Ying-Yang
TTITLE10=Himalaya
TTITLE11=Le Chemin A Suivre
EXTD=YEAR: 2009
EXTT0=
EXTT1=
EXTT2=
EXTT3=
EXTT4=
EXTT5=
EXTT6=
EXTT7=
EXTT8=
EXTT9=
EXTT10=
EXTT11=
PLAYORDER=
